<svg width="48" height="48" viewBox="0 0 48 48" fill="none" xmlns="http://www.w3.org/2000/svg">
<g clip-path="url(#clip0_807_9)">
<path d="M9.53003 4.45C9.67304 4.45126 9.81516 4.42757 9.95003 4.38C13.59 3.12 22.91 3.75 28.44 4.1C30.26 4.24 31.66 4.3 32.5 4.3H32.57C35.37 4.3 36.21 3.82 36.49 3.47C36.5434 3.41501 36.5837 3.3487 36.608 3.27598C36.6322 3.20327 36.6398 3.12603 36.63 3.05C36.5251 2.7616 36.3284 2.51565 36.07 2.35C36.0423 2.3236 36.0092 2.30364 35.9729 2.29154C35.9366 2.27944 35.898 2.2755 35.86 2.28C35.8115 2.30742 35.7722 2.34872 35.7472 2.39861C35.7223 2.44849 35.7128 2.50469 35.72 2.56V2.63C35.37 2.98 33.69 3.05 29.56 2.77C28.5 2.7 27.25 2.63 25.99 2.49C24.38 2.35 22.69 2.21 21.29 2.14H20.95C18.43 2 13.73 1.79 11.56 2.56C10.6974 2.88058 9.91324 3.38177 9.26003 4.03C9.18003 4.17 9.26003 4.23 9.26003 4.31C9.39003 4.45 9.46003 4.45 9.53003 4.45V4.45ZM2.04003 14.18C2.11003 14.18 2.25003 14.04 2.32003 13.9C3.23003 12.7 5.26003 11.59 8.20003 10.82C11.84 9.84 15.2 9.49 24.24 9C33.34 8.44 36.84 7.8 38.66 6.13C38.8289 5.9858 38.952 5.79543 39.0142 5.58225C39.0763 5.36907 39.0749 5.14237 39.01 4.93C38.8805 4.46706 38.5804 4.07042 38.17 3.82C38.1169 3.82703 38.0676 3.85168 38.03 3.89C37.96 3.96 38.03 4.17 38.1 4.24C38.1595 4.30523 38.198 4.38684 38.2105 4.47422C38.2229 4.56161 38.2089 4.65073 38.17 4.73C38.038 5.00571 37.8157 5.228 37.54 5.36C35.44 6.48 28.86 6.69 24.94 6.83C24.31 6.83 23.74 6.9 23.26 6.9H22.49C18.78 7.04 10.17 7.39 6.17003 9.2C3.30003 10.47 2.74003 11.59 1.97003 13.62C1.97003 13.76 1.83003 14.11 2.04003 14.18V14.18Z" fill="#EE7203"/>
<path d="M17.16 17.68C26.62 15.58 42.44 12.01 41.53 7.80999C41.3344 6.77611 40.7648 5.85052 39.93 5.20999C39.78 5.14999 39.71 5.14999 39.64 5.20999C39.6027 5.24906 39.5819 5.30099 39.5819 5.35499C39.5819 5.409 39.6027 5.46093 39.64 5.49999C39.8863 5.71941 40.0826 5.98924 40.2154 6.29119C40.3483 6.59314 40.4146 6.92014 40.41 7.24999C40.3471 7.74431 40.0965 8.19548 39.71 8.50999C37.68 10.26 34.11 11.1 30.96 11.87C28.93 12.36 26.2 12.92 23.05 13.55C20.88 13.97 18.64 14.39 16.32 14.88C4.91999 17.26 0.149986 20.13 0.0199861 24.75C-0.0110409 25.8568 0.103268 26.9629 0.359986 28.04C0.429986 28.25 0.569986 28.25 0.569986 28.25H0.639986C0.849986 28.18 0.989986 27.83 0.989986 27.27C0.919986 23.97 4.55999 21.17 11.7 18.94C12.75 18.66 14.72 18.24 17.16 17.68V17.68Z" fill="#EE7203"/>
<path d="M25.22 25.03C28.4947 23.7338 31.7172 22.3094 34.88 20.76C40.41 17.96 43.49 15.09 43.98 12.15C44.0826 11.3459 43.9969 10.5289 43.7297 9.76352C43.4624 8.99818 43.0209 8.30544 42.44 7.74C42.3 7.6 42.16 7.6 42.09 7.67C41.95 7.74 42.09 7.95 42.16 8.09C42.4985 8.49213 42.7433 8.96463 42.8765 9.47317C43.0097 9.98171 43.028 10.5135 42.93 11.03C42.58 12.78 40.97 14.46 38.1 16C33.7886 18.2048 29.3471 20.145 24.8 21.81C19.2723 23.7038 13.9272 26.0935 8.82996 28.95C3.92996 31.89 3.99996 34.62 4.55996 36.65C5.08331 37.9387 5.89791 39.0887 6.93996 40.01C7.0558 40.1204 7.20211 40.1936 7.35996 40.22C7.42996 40.22 7.42996 40.22 7.49996 40.15C7.63996 40.01 7.56996 39.8 7.21996 39.31C6.88027 38.746 6.67794 38.11 6.6293 37.4534C6.58066 36.7968 6.68708 36.1379 6.93996 35.53C8.05996 32.17 16.81 28.53 25.22 25.03V25.03Z" fill="#EE7203"/>
<path d="M45.9401 14.67C45.8001 13.34 45.1001 11.37 44.8201 11.37C44.7501 11.37 44.6801 11.37 44.6801 11.45C44.6101 11.59 44.6801 11.73 44.7501 12.01H44.8201L44.7501 12.08C47.2701 18.52 39.1501 24.26 31.8001 28.46C30.5401 29.16 28.9301 30 27.1801 30.91C20.7401 34.34 12.6801 38.54 12.2601 41.48C12.1788 42.04 12.2534 42.6116 12.4757 43.132C12.698 43.6524 13.0593 44.1015 13.5201 44.43C13.988 44.8108 14.5399 45.0748 15.1301 45.2C15.1681 45.2045 15.2066 45.2006 15.2429 45.1885C15.2792 45.1764 15.3124 45.1564 15.3401 45.13C15.4801 44.99 15.3401 44.78 14.9901 44.36C14.8624 44.2186 14.7654 44.0523 14.7052 43.8716C14.6449 43.6909 14.6228 43.4997 14.6401 43.31C14.7101 42.33 15.6901 41.13 17.2401 40.08C19.2001 38.68 22.0001 37.21 24.9401 35.53C34.8101 30.14 47.0601 23.35 45.9401 14.67V14.67Z" fill="#EE7203"/>
<path d="M47.2 17.33C47.13 17.19 47.06 17.19 47 17.19C46.94 17.19 46.78 17.26 46.85 18.38C46.9093 19.8894 46.7441 21.3992 46.36 22.86C45.46 26.57 43 29.79 38.31 33.64C35.23 36.16 30.96 38.4 26.13 40.93C23.61 42.26 21.02 43.59 18.21 45.13C17.86 45.33 17.37 45.76 17.51 45.97C17.51 46.04 17.58 46.11 17.72 46.11H17.86C18 46.11 31.16 42.25 39.78 35.32C44.61 31.4 47.2 26.92 47.62 21.95C47.8079 20.3976 47.6647 18.8231 47.2 17.33V17.33Z" fill="#EE7203"/>
</g>
<defs>
<clipPath id="clip0_807_9">
<rect width="47.69" height="44.11" fill="white" transform="translate(0 2)"/>
</clipPath>
</defs>
</svg>
